<?xml version="1.0" encoding="UTF-8"?>
<svg version="1.1" viewBox="0 0 32 32" xmlns="http://www.w3.org/2000/svg">
<path d="m4.623 0c-2.5533-2.0139e-4 -4.6232 2.0697-4.623 4.623v22.754c-2.0145e-4 2.5533 2.0697 4.6232 4.623 4.623h22.754c2.5533 2.01e-4 4.6232-2.0697 4.623-4.623v-22.754c2.01e-4 -2.5533-2.0697-4.6232-4.623-4.623h-22.754z" fill="#0d1117"/>
<path d="m15.977 3.6433a12.668 12.668 0 0 0-4.0086 24.685c0.63342 0.11763 0.90488-0.27146 0.90488-0.60627v-2.1536c-3.52 0.7601-4.262-1.7012-4.262-1.7012a3.3571 3.3571 0 0 0-1.4659-1.855c-1.1492-0.7782 0.090488-0.76915 0.090488-0.76915a2.6603 2.6603 0 0 1 1.9364 1.3121 2.7146 2.7146 0 0 0 3.6919 1.0497 2.6513 2.6513 0 0 1 0.7963-1.6921c-2.8051-0.32576-5.7641-1.4116-5.7641-6.2618a4.8864 4.8864 0 0 1 1.303-3.4024 4.5244 4.5244 0 0 1 0.12668-3.3481s1.0587-0.34385 3.4838 1.294a12.035 12.035 0 0 1 6.3342 0c2.416-1.6378 3.4747-1.294 3.4747-1.294a4.5244 4.5244 0 0 1 0.12668 3.3481 4.8864 4.8864 0 0 1 1.303 3.4024c0 4.8683-2.959 5.936-5.7822 6.2527a3.0133 3.0133 0 0 1 0.85964 2.3436v3.4747c0 0.41624 0.22622 0.73295 0.90488 0.60627a12.668 12.668 0 0 0-4.0539-24.685z" fill="#fff"/>
</svg>
